<svg xmlns="http://www.w3.org/2000/svg" viewBox="0 0 585.4 87.17"><defs><style>.cls-1{fill:#fd0;}.cls-2{fill:#76ffd5;}.cls-3{fill:#0d0c22;}</style></defs><g id="Layer_2" data-name="Layer 2"><g id="Layer_1-2" data-name="Layer 1"><rect class="cls-1" x="72.23" width="513.17" height="87.17" rx="12"/><rect class="cls-2" width="105.25" height="87.17" rx="12"/><path class="cls-1" d="M54.79,41.36a18.39,18.39,0,0,1-7.58,1.92,14.11,14.11,0,0,1-3.83-.53l2.14,22a3.62,3.62,0,0,0,1.17,2.4,3.71,3.71,0,0,0,2.49,1s3,.16,4,.16,4.36-.16,4.36-.16a3.67,3.67,0,0,0,3.66-3.37l2.29-24.28a9.73,9.73,0,0,0-3.22-.58A13.64,13.64,0,0,0,54.79,41.36Z"/><path class="cls-3" d="M73.42,30l-.32-1.63A4.05,4.05,0,0,0,70.66,25a3.68,3.68,0,0,1-1.39-.59,2.37,2.37,0,0,1-.56-1.4c-.16-.92-.31-1.84-.47-2.76a9.08,9.08,0,0,0-.61-2.41,4.23,4.23,0,0,0-2.43-1.92,13.57,13.57,0,0,0-1.53-.48,38,38,0,0,0-7.51-1,61.72,61.72,0,0,0-9,.15,26.9,26.9,0,0,0-6.72,1.22A5.66,5.66,0,0,0,38.26,17a2.35,2.35,0,0,0-.43,2.8,3.64,3.64,0,0,0,1.68,1.42,13.8,13.8,0,0,0,2.75.89,44.07,44.07,0,0,0,8,.9,60.14,60.14,0,0,0,8.9-.29c.73-.08,1.46-.17,2.19-.29a1.64,1.64,0,0,0,1.15-2,1.7,1.7,0,0,0-2-1.16l-.41.06-.09,0-.94.11c-.64.07-1.29.12-1.93.17-1.45.1-2.9.14-4.36.15s-2.85,0-4.27-.14c-.65,0-1.3-.09-1.94-.16l-.88-.1-.28,0h-.06l-.29,0c-.59-.09-1.18-.2-1.77-.32a.29.29,0,0,1-.15-.09.27.27,0,0,1-.06-.17.23.23,0,0,1,.06-.16.31.31,0,0,1,.15-.1h0c.51-.11,1-.2,1.53-.28l.52-.08h0c.32,0,.64-.08,1-.11a61.44,61.44,0,0,1,8.36-.3c1.35,0,2.71.12,4.06.26l.86.09.34.05.22,0c.65.1,1.3.21,1.95.35,1,.21,2.18.28,2.61,1.33a7.35,7.35,0,0,1,.27,1l.09.44v0c.22,1,.45,2.1.68,3.15a.88.88,0,0,1,0,.23.55.55,0,0,1-.1.22.44.44,0,0,1-.17.16.58.58,0,0,1-.22.08h0l-.13,0-.14,0-1.3.16c-.85.09-1.7.18-2.56.25-1.7.14-3.4.23-5.11.28-.87,0-1.73,0-2.6,0a91.68,91.68,0,0,1-10.35-.6l-1.12-.14c.29,0-.21,0-.31-.05l-.71-.1c-.79-.12-1.58-.26-2.37-.39A4.13,4.13,0,0,0,35.8,25a4.06,4.06,0,0,0-1.65,1.71,10.22,10.22,0,0,0-.65,2.44,8.39,8.39,0,0,0-.33,2.58,4.1,4.1,0,0,0,3.35,3.66c1.74.32,3.49.57,5.24.79a96.6,96.6,0,0,0,20.75.3l1.68-.17a1.13,1.13,0,0,1,.52.06,1.18,1.18,0,0,1,.73.72,1.28,1.28,0,0,1,.06.52l-.18,1.7-1,10.3L63.16,60.42c-.11,1-.21,2-.32,3s-.11,2-.3,3a3.51,3.51,0,0,1-2.89,2.85,20.6,20.6,0,0,1-4.28.51c-1.6,0-3.2-.07-4.8-.06s-3.8-.15-5.11-1.42C44.3,67.26,44.14,65.51,44,64q-.31-3-.62-6L42.2,46.89l-.75-7.19c0-.12,0-.24,0-.36a1.66,1.66,0,0,0-3.31,0l.56,5.33,1.15,11c.33,3.13.65,6.27,1,9.4.06.6.12,1.2.19,1.8.36,3.29,2.86,5,6,5.55a39,39,0,0,0,5.51.38,35.41,35.41,0,0,0,7.06-.3c3.43-.63,6-2.92,6.38-6.48.1-1,.21-2,.31-3.08l1-10.2,1.14-11.11.52-5.09a1.18,1.18,0,0,1,.31-.68,1.21,1.21,0,0,1,.64-.36,4.57,4.57,0,0,0,2.62-1.27A4.42,4.42,0,0,0,73.42,30Zm-36.95,1.1a.56.56,0,0,1,0,.18C36.44,31.15,36.45,31.07,36.47,31.06Zm.09.73s0,0,.06.07-.06-.06-.06-.07Zm.1.13Zm.18.15h0s0,0,0,0l0,0Zm33-.23a2.62,2.62,0,0,1-1.41.57,98.56,98.56,0,0,1-17.83,1.12,120.36,120.36,0,0,1-12.71-1.21,1.89,1.89,0,0,1-1.14-.44c-.54-.58-.27-1.74-.14-2.43S37,28,37.72,27.87a15.35,15.35,0,0,1,3.73.54c1.4.22,2.82.39,4.24.52a82.33,82.33,0,0,0,18.23-.34c1.1-.15,2.19-.32,3.28-.52s2-.5,2.64.51A4.19,4.19,0,0,1,70.23,31a1.35,1.35,0,0,1-.41.89Z"/><path d="M142.87,27.78q5,0,7.44,2.34T152.75,37A7.41,7.41,0,0,1,148,44.19a14.65,14.65,0,0,1-5.77,1l.2-2.34a18.37,18.37,0,0,1,3.7.44,14.25,14.25,0,0,1,4,1.56,8.86,8.86,0,0,1,4.49,8.24,12.41,12.41,0,0,1-1.11,5.62,8.71,8.71,0,0,1-2.94,3.38,11.51,11.51,0,0,1-3.9,1.64,19.6,19.6,0,0,1-4,.44H129.77a3.07,3.07,0,0,1-2.27-.91,3.1,3.1,0,0,1-.91-2.26V31a3.1,3.1,0,0,1,.91-2.26,3.07,3.07,0,0,1,2.27-.91Zm-.94,6.14h-9.25l.67-.84V42.5l-.62-.47h9.36a4.09,4.09,0,0,0,2.7-1,3.49,3.49,0,0,0,1.2-2.86,3.73,3.73,0,0,0-4.06-4.26Zm.42,14.24h-9.46l.46-.41v11l-.52-.52h9.88a5.44,5.44,0,0,0,3.8-1.27,4.91,4.91,0,0,0,1.4-3.83,5,5,0,0,0-.93-3.38,4.09,4.09,0,0,0-2.24-1.3A12.44,12.44,0,0,0,142.35,48.16Z"/><path d="M186.5,27.73a2.79,2.79,0,0,1,2.18.91,3.2,3.2,0,0,1,.83,2.26V49.72a15.52,15.52,0,0,1-1.84,7.65,13.41,13.41,0,0,1-5.07,5.2,16,16,0,0,1-15,0,13.35,13.35,0,0,1-5.1-5.2,15.52,15.52,0,0,1-1.85-7.65V30.9a3,3,0,0,1,.94-2.26,3.27,3.27,0,0,1,2.39-.91,3,3,0,0,1,2.16.91,3,3,0,0,1,1,2.26V49.72a8.64,8.64,0,0,0,1.12,4.5,8,8,0,0,0,6.89,4,8.64,8.64,0,0,0,4.16-1,8.17,8.17,0,0,0,4.32-7.44V30.9a3.36,3.36,0,0,1,.78-2.26A2.65,2.65,0,0,1,186.5,27.73Z"/><path d="M220,27.62a3.09,3.09,0,0,1,2.15.91,3,3,0,0,1,1,2.32,4.1,4.1,0,0,1-.13,1,3.22,3.22,0,0,1-.45,1l-11.8,16.9.94-3.59V61a3.1,3.1,0,0,1-.91,2.26,2.89,2.89,0,0,1-2.11.91,3,3,0,0,1-2.21-.91,3.06,3.06,0,0,1-.91-2.26V46.5l.42,1.66L194.71,33.24a4.37,4.37,0,0,1-.72-1.3,3.64,3.64,0,0,1-.21-1.14,2.8,2.8,0,0,1,1.09-2.29,3.53,3.53,0,0,1,2.24-.89,3.13,3.13,0,0,1,2.54,1.46l10,13.78-1.46-.21,9.21-13.47A3.13,3.13,0,0,1,220,27.62Z"/><path d="M245.62,27.73a3.54,3.54,0,0,1,1.54.39,3.09,3.09,0,0,1,1.22,1L261,48.58l-2.6-.1,12.95-19.35a3,3,0,0,1,2.55-1.4,3.27,3.27,0,0,1,2.24.88,3,3,0,0,1,1,2.29V61a3.07,3.07,0,0,1-3.22,3.17,3.2,3.2,0,0,1-2.37-.91,3.1,3.1,0,0,1-.91-2.26V36.52l2,.46L262.05,53.16a4.18,4.18,0,0,1-1.17,1,2.42,2.42,0,0,1-1.43.37,2.31,2.31,0,0,1-1.37-.37,4.18,4.18,0,0,1-1.17-1L247,37.45l1.36-2.75V61a3.21,3.21,0,0,1-.84,2.26,2.79,2.79,0,0,1-2.18.91,2.73,2.73,0,0,1-2.13-.91,3.2,3.2,0,0,1-.83-2.26V30.9a3,3,0,0,1,1-2.24A3.2,3.2,0,0,1,245.62,27.73Z"/><path d="M288.11,27.78h17.42a3.18,3.18,0,0,1,2.26.86,2.92,2.92,0,0,1,.91,2.21,2.67,2.67,0,0,1-.91,2.1,3.28,3.28,0,0,1-2.26.81H291l.46-.88V43L291,42.6h12.17a3.18,3.18,0,0,1,2.26.86,2.92,2.92,0,0,1,.91,2.21,2.67,2.67,0,0,1-.91,2.1,3.28,3.28,0,0,1-2.26.81h-12l.26-.42V58.67L291,58.2h14.51a3.06,3.06,0,0,1,2.26.91,2.93,2.93,0,0,1,.91,2.11,2.8,2.8,0,0,1-.91,2.13,3.25,3.25,0,0,1-2.26.83H288.11a3.07,3.07,0,0,1-2.27-.91,3.1,3.1,0,0,1-.91-2.26V31a3.1,3.1,0,0,1,.91-2.26A3.07,3.07,0,0,1,288.11,27.78Z"/><path d="M342.6,35.94,331.37,62.36a3.17,3.17,0,0,1-1.12,1.53,2.7,2.7,0,0,1-1.64.55,2.61,2.61,0,0,1-2.08-.78,2.83,2.83,0,0,1-.67-1.92,3.55,3.55,0,0,1,.15-1L339,29.65A3.38,3.38,0,0,1,340.24,28a2.71,2.71,0,0,1,1.84-.47A3.11,3.11,0,0,1,345,29.65l12.79,30.47a3.41,3.41,0,0,1,.26,1.25,3,3,0,0,1-2.91,3.07,2.74,2.74,0,0,1-1.69-.57,3.74,3.74,0,0,1-1.17-1.56L341.09,36.26ZM333,56l2.86-6h14l1,6Z"/><path d="M402.5,29.55a2.77,2.77,0,0,1,1.59,2.13,3.21,3.21,0,0,1-.75,2.65,2.38,2.38,0,0,1-1.75,1,4.06,4.06,0,0,1-2.15-.41,13.8,13.8,0,0,0-2.63-.89,12.93,12.93,0,0,0-2.89-.31,13.56,13.56,0,0,0-5,.88,10.4,10.4,0,0,0-3.77,2.53A10.92,10.92,0,0,0,382.77,41,14.42,14.42,0,0,0,382,46a15.29,15.29,0,0,0,.91,5.51,10.75,10.75,0,0,0,2.53,3.9,10.24,10.24,0,0,0,3.79,2.32,14.48,14.48,0,0,0,4.73.75,15.63,15.63,0,0,0,2.81-.26,9.29,9.29,0,0,0,2.71-.94,3.74,3.74,0,0,1,2.15-.36,2.74,2.74,0,0,1,1.8,1.09,3.15,3.15,0,0,1,.75,2.68,2.73,2.73,0,0,1-1.58,2,18.06,18.06,0,0,1-2.79,1.12,22.29,22.29,0,0,1-2.88.68,19.41,19.41,0,0,1-3,.23,20.86,20.86,0,0,1-7.09-1.2,17.79,17.79,0,0,1-6-3.53,16.3,16.3,0,0,1-4.14-5.85A20.56,20.56,0,0,1,375.2,46a19.32,19.32,0,0,1,1.38-7.38,17.06,17.06,0,0,1,3.9-5.85,18,18,0,0,1,6-3.85,19.83,19.83,0,0,1,7.48-1.38,19.13,19.13,0,0,1,4.48.52A18.26,18.26,0,0,1,402.5,29.55Z"/><path d="M443.11,46a20.23,20.23,0,0,1-1.29,7.28,18.51,18.51,0,0,1-3.67,6,16.9,16.9,0,0,1-5.62,4,17.24,17.24,0,0,1-19.76-4,18.32,18.32,0,0,1-3.66-6,21,21,0,0,1,0-14.56,18.32,18.32,0,0,1,3.66-6,17.3,17.3,0,0,1,25.38,0,18.51,18.51,0,0,1,3.67,6A20.23,20.23,0,0,1,443.11,46Zm-6.75,0A14,14,0,0,0,435,39.66a11.44,11.44,0,0,0-3.85-4.5,10.5,10.5,0,0,0-11.33,0,11.33,11.33,0,0,0-3.83,4.48,15.31,15.31,0,0,0,0,12.66,11.32,11.32,0,0,0,3.83,4.5,10.5,10.5,0,0,0,11.33,0A11.44,11.44,0,0,0,435,52.3,14,14,0,0,0,436.36,46Z"/><path d="M452.37,64.18a3.2,3.2,0,0,1-2.37-.91,3.09,3.09,0,0,1-.9-2.26V31a3.09,3.09,0,0,1,3.17-3.17h16.9a3.18,3.18,0,0,1,2.26.86,2.92,2.92,0,0,1,.91,2.21,2.79,2.79,0,0,1-.91,2,3.12,3.12,0,0,1-2.26.88h-14l.47-.62V43.59l-.37-.68h11.6a3.18,3.18,0,0,1,2.26.86A2.92,2.92,0,0,1,470,46a2.79,2.79,0,0,1-.91,2,3.12,3.12,0,0,1-2.26.88h-11.7l.47-.47V61a3,3,0,0,1-1,2.26A3.16,3.16,0,0,1,452.37,64.18Z"/><path d="M481.59,64.18a3.16,3.16,0,0,1-2.36-.91,3.06,3.06,0,0,1-.91-2.26V31a3.11,3.11,0,0,1,3.17-3.17h16.9a3.17,3.17,0,0,1,2.26.86,2.89,2.89,0,0,1,.91,2.21,2.75,2.75,0,0,1-.91,2,3.1,3.1,0,0,1-2.26.88h-14l.47-.62V43.59l-.37-.68h11.6a3.17,3.17,0,0,1,2.26.86,2.89,2.89,0,0,1,.91,2.21,2.75,2.75,0,0,1-.91,2,3.1,3.1,0,0,1-2.26.88h-11.7l.47-.47V61a3,3,0,0,1-1,2.26A3.2,3.2,0,0,1,481.59,64.18Z"/><path d="M510.71,27.78h17.42a3.21,3.21,0,0,1,2.27.86,2.92,2.92,0,0,1,.91,2.21,2.67,2.67,0,0,1-.91,2.1,3.31,3.31,0,0,1-2.27.81H513.57l.47-.88V43l-.41-.42h12.16a3.21,3.21,0,0,1,2.27.86,2.92,2.92,0,0,1,.91,2.21,2.67,2.67,0,0,1-.91,2.1,3.31,3.31,0,0,1-2.27.81h-12l.26-.42V58.67l-.41-.47h14.5a3.08,3.08,0,0,1,2.27.91,2.93,2.93,0,0,1,.91,2.11,2.8,2.8,0,0,1-.91,2.13,3.27,3.27,0,0,1-2.27.83H510.71a3.06,3.06,0,0,1-2.26-.91,3.1,3.1,0,0,1-.91-2.26V31a3.1,3.1,0,0,1,.91-2.26A3.06,3.06,0,0,1,510.71,27.78Z"/><path d="M540.46,27.78h17.42a3.18,3.18,0,0,1,2.26.86,2.89,2.89,0,0,1,.91,2.21,2.64,2.64,0,0,1-.91,2.1,3.28,3.28,0,0,1-2.26.81H543.32l.47-.88V43l-.42-.42h12.17a3.18,3.18,0,0,1,2.26.86,2.89,2.89,0,0,1,.91,2.21,2.64,2.64,0,0,1-.91,2.1,3.28,3.28,0,0,1-2.26.81h-12l.26-.42V58.67l-.42-.47h14.51a3.06,3.06,0,0,1,2.26.91,2.89,2.89,0,0,1,.91,2.11,2.76,2.76,0,0,1-.91,2.13,3.25,3.25,0,0,1-2.26.83H540.46A3.09,3.09,0,0,1,537.29,61V31a3.09,3.09,0,0,1,3.17-3.17Z"/></g></g></svg>