<svg xmlns="http://www.w3.org/2000/svg" xmlns:xlink="http://www.w3.org/1999/xlink" viewBox="0 0 163.29 187.07"><defs><style>.cls-1,.cls-3{fill:none;stroke-linecap:round;stroke-miterlimit:10;stroke-width:3px;}.cls-1{stroke:#009c00;}.cls-2{fill:url(#linear-gradient);}.cls-3{stroke:#dd0600;}.cls-4{fill:url(#linear-gradient-2);}.cls-5{fill:url(#linear-gradient-3);}</style><linearGradient id="linear-gradient" x1="0.84" y1="161.87" x2="81.55" y2="22.07" gradientUnits="userSpaceOnUse"><stop offset="0" stop-color="#2b6a00"/><stop offset="1" stop-color="#00ce00"/></linearGradient><linearGradient id="linear-gradient-2" x1="99.34" y1="173.12" x2="147.31" y2="90.03" gradientUnits="userSpaceOnUse"><stop offset="0" stop-color="#bd0000"/><stop offset="1" stop-color="#ff5600"/></linearGradient><linearGradient id="linear-gradient-3" x1="101.09" y1="94.33" x2="147.04" y2="14.73" xlink:href="#linear-gradient-2"/></defs><g id="Layer_2" data-name="Layer 2"><g id="Layer_1-2" data-name="Layer 1"><line class="cls-1" x1="38.52" y1="1.5" x2="38.52" y2="185.57"/><path class="cls-2" d="M10.7,19.46H77a0,0,0,0,1,0,0V165.91a0,0,0,0,1,0,0H10.7A10.7,10.7,0,0,1,0,155.21v-125A10.7,10.7,0,0,1,10.7,19.46Z"/><line class="cls-3" x1="125.07" y1="96.77" x2="125.07" y2="185.54"/><path class="cls-4" d="M86.85,99.26h76.43a0,0,0,0,1,0,0V154.9a11,11,0,0,1-11,11H86.85a0,0,0,0,1,0,0V99.26A0,0,0,0,1,86.85,99.26Z"/><line class="cls-3" x1="125.07" y1="1.56" x2="125.07" y2="88.98"/><path class="cls-5" d="M86.85,19.46h65.43a11,11,0,0,1,11,11V86.11a0,0,0,0,1,0,0H86.85a0,0,0,0,1,0,0V19.46A0,0,0,0,1,86.85,19.46Z"/></g></g></svg>